<svg width="48" height="48" viewBox="0 0 48 48" fill="none" xmlns="http://www.w3.org/2000/svg">
<path d="M20 16H16V20H20V16ZM20 16H24V12H32V8H24V4H16V8H20V16ZM8 40H12V36H8V40ZM12 44H20V40H12V44ZM4 36H8V28H12V24H4V20H0V28H4V36ZM20 48H40V44H20V48ZM16 36H20V32H16V36ZM24 40H28V36H24V40ZM12 24H16V20H12V24ZM4 20H12V16H16V8H12V12H8V16H4V20ZM4 12H8V8H4V12ZM32 40H36V36H32V40ZM24 32H28V28H24V32ZM32 32H36V28H32V32ZM40 44H44V24H40V44ZM28 24H32V20H28V24ZM36 24H40V16H36V24ZM32 16H36V12H32V16Z" fill="#FF6254"/>
</svg>
